<svg xmlns="http://www.w3.org/2000/svg" width="776" height="444" viewBox="0 0 776 444" font-family="Helvetica,Arial,sans-serif">
<rect width="776" height="444" fill="white"/>
<text x="388" y="26" text-anchor="middle" font-size="18" font-weight="bold" fill="#222222">Database: Seed and Load Cost at NG SAP Scale</text>
<line x1="188" y1="52" x2="212" y2="52" stroke="#c1121f" stroke-width="2.5"/>
<circle cx="200" cy="52" r="3.2" fill="#c1121f"/>
<text x="220" y="56" font-size="13" fill="#222222">Static subject mappings</text>
<line x1="388" y1="52" x2="412" y2="52" stroke="#0353a4" stroke-width="2.5"/>
<circle cx="400" cy="52" r="3.2" fill="#0353a4"/>
<text x="420" y="56" font-size="13" fill="#222222">Dynamic value mapping</text>
<text x="220" y="74" text-anchor="middle" font-size="14" font-weight="bold" fill="#222222">Seed time</text>
<line x1="70.0" y1="386.0" x2="370.0" y2="386.0" stroke="#d9d9d9" stroke-width="1"/>
<text x="62.0" y="390.0" text-anchor="end" font-size="11" fill="#222222">1</text>
<line x1="70.0" y1="326.0" x2="370.0" y2="326.0" stroke="#d9d9d9" stroke-width="1"/>
<text x="62.0" y="330.0" text-anchor="end" font-size="11" fill="#222222">10</text>
<line x1="70.0" y1="266.0" x2="370.0" y2="266.0" stroke="#d9d9d9" stroke-width="1"/>
<text x="62.0" y="270.0" text-anchor="end" font-size="11" fill="#222222">100</text>
<line x1="70.0" y1="206.0" x2="370.0" y2="206.0" stroke="#d9d9d9" stroke-width="1"/>
<text x="62.0" y="210.0" text-anchor="end" font-size="11" fill="#222222">1,000</text>
<line x1="70.0" y1="146.0" x2="370.0" y2="146.0" stroke="#d9d9d9" stroke-width="1"/>
<text x="62.0" y="150.0" text-anchor="end" font-size="11" fill="#222222">10,000</text>
<line x1="70.0" y1="86.0" x2="370.0" y2="86.0" stroke="#d9d9d9" stroke-width="1"/>
<text x="62.0" y="90.0" text-anchor="end" font-size="11" fill="#222222">100,000</text>
<line x1="70.0" y1="86.0" x2="70.0" y2="386.0" stroke="#d9d9d9" stroke-width="1"/>
<text x="70.0" y="404.0" text-anchor="middle" font-size="11" fill="#222222">10,000</text>
<line x1="220.0" y1="86.0" x2="220.0" y2="386.0" stroke="#d9d9d9" stroke-width="1"/>
<text x="220.0" y="404.0" text-anchor="middle" font-size="11" fill="#222222">100,000</text>
<line x1="370.0" y1="86.0" x2="370.0" y2="386.0" stroke="#d9d9d9" stroke-width="1"/>
<text x="370.0" y="404.0" text-anchor="middle" font-size="11" fill="#222222">1e6</text>
<rect x="70.0" y="86.0" width="300" height="300" fill="none" stroke="#333333" stroke-width="1.5"/>
<text x="20" y="236" text-anchor="middle" font-size="12" fill="#222222" transform="rotate(-90 20 236)">Seed time (ms)</text>
<polyline points="70.0,221.4 174.8,181.0 220.0,163.6 324.8,119.6 370.0,98.0" fill="none" stroke="#c1121f" stroke-width="2.5"/>
<circle cx="70.0" cy="221.4" r="3.2" fill="#c1121f"/>
<circle cx="174.8" cy="181.0" r="3.2" fill="#c1121f"/>
<circle cx="220.0" cy="163.6" r="3.2" fill="#c1121f"/>
<circle cx="324.8" cy="119.6" r="3.2" fill="#c1121f"/>
<circle cx="370.0" cy="98.0" r="3.2" fill="#c1121f"/>
<polyline points="70.0,336.9 174.8,336.9 220.0,336.9 324.8,336.9 370.0,338.6" fill="none" stroke="#0353a4" stroke-width="2.5"/>
<circle cx="70.0" cy="336.9" r="3.2" fill="#0353a4"/>
<circle cx="174.8" cy="336.9" r="3.2" fill="#0353a4"/>
<circle cx="220.0" cy="336.9" r="3.2" fill="#0353a4"/>
<circle cx="324.8" cy="336.9" r="3.2" fill="#0353a4"/>
<circle cx="370.0" cy="338.6" r="3.2" fill="#0353a4"/>
<text x="598" y="74" text-anchor="middle" font-size="14" font-weight="bold" fill="#222222">Load time (paged list)</text>
<line x1="448.0" y1="386.0" x2="748.0" y2="386.0" stroke="#d9d9d9" stroke-width="1"/>
<text x="440.0" y="390.0" text-anchor="end" font-size="11" fill="#222222">1</text>
<line x1="448.0" y1="343.1" x2="748.0" y2="343.1" stroke="#d9d9d9" stroke-width="1"/>
<text x="440.0" y="347.1" text-anchor="end" font-size="11" fill="#222222">10</text>
<line x1="448.0" y1="300.3" x2="748.0" y2="300.3" stroke="#d9d9d9" stroke-width="1"/>
<text x="440.0" y="304.3" text-anchor="end" font-size="11" fill="#222222">100</text>
<line x1="448.0" y1="257.4" x2="748.0" y2="257.4" stroke="#d9d9d9" stroke-width="1"/>
<text x="440.0" y="261.4" text-anchor="end" font-size="11" fill="#222222">1,000</text>
<line x1="448.0" y1="214.6" x2="748.0" y2="214.6" stroke="#d9d9d9" stroke-width="1"/>
<text x="440.0" y="218.6" text-anchor="end" font-size="11" fill="#222222">10,000</text>
<line x1="448.0" y1="171.7" x2="748.0" y2="171.7" stroke="#d9d9d9" stroke-width="1"/>
<text x="440.0" y="175.7" text-anchor="end" font-size="11" fill="#222222">100,000</text>
<line x1="448.0" y1="128.9" x2="748.0" y2="128.9" stroke="#d9d9d9" stroke-width="1"/>
<text x="440.0" y="132.9" text-anchor="end" font-size="11" fill="#222222">1e6</text>
<line x1="448.0" y1="86.0" x2="748.0" y2="86.0" stroke="#d9d9d9" stroke-width="1"/>
<text x="440.0" y="90.0" text-anchor="end" font-size="11" fill="#222222">1e7</text>
<line x1="448.0" y1="86.0" x2="448.0" y2="386.0" stroke="#d9d9d9" stroke-width="1"/>
<text x="448.0" y="404.0" text-anchor="middle" font-size="11" fill="#222222">10,000</text>
<line x1="598.0" y1="86.0" x2="598.0" y2="386.0" stroke="#d9d9d9" stroke-width="1"/>
<text x="598.0" y="404.0" text-anchor="middle" font-size="11" fill="#222222">100,000</text>
<line x1="748.0" y1="86.0" x2="748.0" y2="386.0" stroke="#d9d9d9" stroke-width="1"/>
<text x="748.0" y="404.0" text-anchor="middle" font-size="11" fill="#222222">1e6</text>
<rect x="448.0" y="86.0" width="300" height="300" fill="none" stroke="#333333" stroke-width="1.5"/>
<text x="398" y="236" text-anchor="middle" font-size="12" fill="#222222" transform="rotate(-90 398 236)">Load time (ms)</text>
<polyline points="448.0,280.4 552.8,228.0 598.0,203.9 702.8,142.9 748.0,117.3" fill="none" stroke="#c1121f" stroke-width="2.5"/>
<circle cx="448.0" cy="280.4" r="3.2" fill="#c1121f"/>
<circle cx="552.8" cy="228.0" r="3.2" fill="#c1121f"/>
<circle cx="598.0" cy="203.9" r="3.2" fill="#c1121f"/>
<circle cx="702.8" cy="142.9" r="3.2" fill="#c1121f"/>
<circle cx="748.0" cy="117.3" r="3.2" fill="#c1121f"/>
<polyline points="448.0,366.2 552.8,366.2 598.0,366.2 702.8,366.2 748.0,368.2" fill="none" stroke="#0353a4" stroke-width="2.5"/>
<circle cx="448.0" cy="366.2" r="3.2" fill="#0353a4"/>
<circle cx="552.8" cy="366.2" r="3.2" fill="#0353a4"/>
<circle cx="598.0" cy="366.2" r="3.2" fill="#0353a4"/>
<circle cx="702.8" cy="366.2" r="3.2" fill="#0353a4"/>
<circle cx="748.0" cy="368.2" r="3.2" fill="#0353a4"/>
<text x="388" y="428" text-anchor="middle" font-size="13" fill="#222222">Total subject mappings (N, log scale)</text>
</svg>