<svg xmlns="http://www.w3.org/2000/svg" width="760" height="460" font-family="sans-serif">
<rect width="760" height="460" fill="white"/>
<text x="380.0" y="28" text-anchor="middle" font-size="16" fill="#222222">PDP entitlements p50 latency vs N (DSPX-2541)</text>
<line x1="78.0" y1="56" x2="78.0" y2="396" stroke="#d9d9d9"/>
<text x="78.0" y="414" text-anchor="middle" font-size="11" fill="#222222">1e4</text>
<line x1="324.0" y1="56" x2="324.0" y2="396" stroke="#d9d9d9"/>
<text x="324.0" y="414" text-anchor="middle" font-size="11" fill="#222222">1e5</text>
<line x1="570.0" y1="56" x2="570.0" y2="396" stroke="#d9d9d9"/>
<text x="570.0" y="414" text-anchor="middle" font-size="11" fill="#222222">1e6</text>
<line x1="78" y1="396.0" x2="570" y2="396.0" stroke="#d9d9d9"/>
<text x="70" y="400.0" text-anchor="end" font-size="11" fill="#222222">1e1</text>
<line x1="78" y1="328.0" x2="570" y2="328.0" stroke="#d9d9d9"/>
<text x="70" y="332.0" text-anchor="end" font-size="11" fill="#222222">1e2</text>
<line x1="78" y1="260.0" x2="570" y2="260.0" stroke="#d9d9d9"/>
<text x="70" y="264.0" text-anchor="end" font-size="11" fill="#222222">1e3</text>
<line x1="78" y1="192.0" x2="570" y2="192.0" stroke="#d9d9d9"/>
<text x="70" y="196.0" text-anchor="end" font-size="11" fill="#222222">1e4</text>
<line x1="78" y1="124.0" x2="570" y2="124.0" stroke="#d9d9d9"/>
<text x="70" y="128.0" text-anchor="end" font-size="11" fill="#222222">1e5</text>
<line x1="78" y1="56.0" x2="570" y2="56.0" stroke="#d9d9d9"/>
<text x="70" y="60.0" text-anchor="end" font-size="11" fill="#222222">1e6</text>
<rect x="78" y="56" width="492" height="340" fill="none" stroke="#333333"/>
<text x="324.0" y="442" text-anchor="middle" font-size="13" fill="#222222">Total subject mappings (N, log scale)</text>
<text x="18" y="226.0" text-anchor="middle" font-size="13" fill="#222222" transform="rotate(-90 18 226.0)">p50 latency (us, log scale)</text>
<path d="M78.0,200.9 L249.9,152.4 L324.0,129.9 L495.9,80.0 L570.0,58.2" fill="none" stroke="#c1121f" stroke-width="2.5"/>
<circle cx="78.0" cy="200.9" r="3" fill="#c1121f"/>
<circle cx="249.9" cy="152.4" r="3" fill="#c1121f"/>
<circle cx="324.0" cy="129.9" r="3" fill="#c1121f"/>
<circle cx="495.9" cy="80.0" r="3" fill="#c1121f"/>
<circle cx="570.0" cy="58.2" r="3" fill="#c1121f"/>
<line x1="584" y1="64" x2="606" y2="64" stroke="#c1121f" stroke-width="2.5"/>
<text x="612" y="68" font-size="11" fill="#222222">full (PDP over all policy)</text>
<path d="M78.0,331.9 L249.9,284.2 L324.0,261.0 L495.9,214.8 L570.0,194.7" fill="none" stroke="#0353a4" stroke-width="2.5"/>
<circle cx="78.0" cy="331.9" r="3" fill="#0353a4"/>
<circle cx="249.9" cy="284.2" r="3" fill="#0353a4"/>
<circle cx="324.0" cy="261.0" r="3" fill="#0353a4"/>
<circle cx="495.9" cy="214.8" r="3" fill="#0353a4"/>
<circle cx="570.0" cy="194.7" r="3" fill="#0353a4"/>
<line x1="584" y1="86" x2="606" y2="86" stroke="#0353a4" stroke-width="2.5"/>
<text x="612" y="90" font-size="11" fill="#222222">scoped (PDP over needed subset)</text>
</svg>