<svg xmlns="http://www.w3.org/2000/svg" width="776" height="444" viewBox="0 0 776 444" font-family="Helvetica,Arial,sans-serif">
<rect width="776" height="444" fill="white"/>
<text x="388" y="26" text-anchor="middle" font-size="18" font-weight="bold" fill="#222222">CEL vs native operator evaluation (DSPX-3673)</text>
<line x1="88" y1="52" x2="112" y2="52" stroke="#0353a4" stroke-width="2.5"/>
<circle cx="100" cy="52" r="3.2" fill="#0353a4"/>
<text x="120" y="56" font-size="13" fill="#222222">native (Go operator switch)</text>
<line x1="288" y1="52" x2="312" y2="52" stroke="#c1121f" stroke-width="2.5"/>
<circle cx="300" cy="52" r="3.2" fill="#c1121f"/>
<text x="320" y="56" font-size="13" fill="#222222">cel (precompiled, per-eval)</text>
<line x1="488" y1="52" x2="512" y2="52" stroke="#8a8a8a" stroke-width="2.5"/>
<circle cx="500" cy="52" r="3.2" fill="#8a8a8a"/>
<text x="520" y="56" font-size="13" fill="#222222">cel_compile (one-time)</text>
<text x="220" y="74" text-anchor="middle" font-size="14" font-weight="bold" fill="#222222">Per-evaluation latency</text>
<line x1="70.0" y1="386.0" x2="370.0" y2="386.0" stroke="#d9d9d9" stroke-width="1"/>
<text x="62.0" y="390.0" text-anchor="end" font-size="11" fill="#222222">10</text>
<line x1="70.0" y1="311.0" x2="370.0" y2="311.0" stroke="#d9d9d9" stroke-width="1"/>
<text x="62.0" y="315.0" text-anchor="end" font-size="11" fill="#222222">100</text>
<line x1="70.0" y1="236.0" x2="370.0" y2="236.0" stroke="#d9d9d9" stroke-width="1"/>
<text x="62.0" y="240.0" text-anchor="end" font-size="11" fill="#222222">1,000</text>
<line x1="70.0" y1="161.0" x2="370.0" y2="161.0" stroke="#d9d9d9" stroke-width="1"/>
<text x="62.0" y="165.0" text-anchor="end" font-size="11" fill="#222222">10,000</text>
<line x1="70.0" y1="86.0" x2="370.0" y2="86.0" stroke="#d9d9d9" stroke-width="1"/>
<text x="62.0" y="90.0" text-anchor="end" font-size="11" fill="#222222">100,000</text>
<line x1="70.0" y1="86.0" x2="70.0" y2="386.0" stroke="#d9d9d9" stroke-width="1"/>
<text x="70.0" y="404.0" text-anchor="middle" font-size="11" fill="#222222">1</text>
<line x1="220.0" y1="86.0" x2="220.0" y2="386.0" stroke="#d9d9d9" stroke-width="1"/>
<text x="220.0" y="404.0" text-anchor="middle" font-size="11" fill="#222222">10</text>
<line x1="370.0" y1="86.0" x2="370.0" y2="386.0" stroke="#d9d9d9" stroke-width="1"/>
<text x="370.0" y="404.0" text-anchor="middle" font-size="11" fill="#222222">100</text>
<rect x="70.0" y="86.0" width="300" height="300" fill="none" stroke="#333333" stroke-width="1.5"/>
<text x="20" y="236" text-anchor="middle" font-size="12" fill="#222222" transform="rotate(-90 20 236)">ns/op</text>
<polyline points="70.0,360.3 213.1,259.2 324.8,165.8" fill="none" stroke="#0353a4" stroke-width="2.5"/>
<circle cx="70.0" cy="360.3" r="3.2" fill="#0353a4"/>
<circle cx="213.1" cy="259.2" r="3.2" fill="#0353a4"/>
<circle cx="324.8" cy="165.8" r="3.2" fill="#0353a4"/>
<polyline points="70.0,256.6 213.1,185.0 324.8,123.1" fill="none" stroke="#c1121f" stroke-width="2.5"/>
<circle cx="70.0" cy="256.6" r="3.2" fill="#c1121f"/>
<circle cx="213.1" cy="185.0" r="3.2" fill="#c1121f"/>
<circle cx="324.8" cy="123.1" r="3.2" fill="#c1121f"/>
<text x="598" y="74" text-anchor="middle" font-size="14" font-weight="bold" fill="#222222">Compile cost (one-time)</text>
<line x1="448.0" y1="386.0" x2="748.0" y2="386.0" stroke="#d9d9d9" stroke-width="1"/>
<text x="440.0" y="390.0" text-anchor="end" font-size="11" fill="#222222">10,000</text>
<line x1="448.0" y1="286.0" x2="748.0" y2="286.0" stroke="#d9d9d9" stroke-width="1"/>
<text x="440.0" y="290.0" text-anchor="end" font-size="11" fill="#222222">100,000</text>
<line x1="448.0" y1="186.0" x2="748.0" y2="186.0" stroke="#d9d9d9" stroke-width="1"/>
<text x="440.0" y="190.0" text-anchor="end" font-size="11" fill="#222222">1e6</text>
<line x1="448.0" y1="86.0" x2="748.0" y2="86.0" stroke="#d9d9d9" stroke-width="1"/>
<text x="440.0" y="90.0" text-anchor="end" font-size="11" fill="#222222">1e7</text>
<line x1="448.0" y1="86.0" x2="448.0" y2="386.0" stroke="#d9d9d9" stroke-width="1"/>
<text x="448.0" y="404.0" text-anchor="middle" font-size="11" fill="#222222">1</text>
<line x1="598.0" y1="86.0" x2="598.0" y2="386.0" stroke="#d9d9d9" stroke-width="1"/>
<text x="598.0" y="404.0" text-anchor="middle" font-size="11" fill="#222222">10</text>
<line x1="748.0" y1="86.0" x2="748.0" y2="386.0" stroke="#d9d9d9" stroke-width="1"/>
<text x="748.0" y="404.0" text-anchor="middle" font-size="11" fill="#222222">100</text>
<rect x="448.0" y="86.0" width="300" height="300" fill="none" stroke="#333333" stroke-width="1.5"/>
<text x="398" y="236" text-anchor="middle" font-size="12" fill="#222222" transform="rotate(-90 398 236)">ns/op</text>
<polyline points="448.0,293.4 591.1,231.0 702.8,149.5" fill="none" stroke="#8a8a8a" stroke-width="2.5"/>
<circle cx="448.0" cy="293.4" r="3.2" fill="#8a8a8a"/>
<circle cx="591.1" cy="231.0" r="3.2" fill="#8a8a8a"/>
<circle cx="702.8" cy="149.5" r="3.2" fill="#8a8a8a"/>
<text x="388" y="428" text-anchor="middle" font-size="13" fill="#222222">Conditions per subject set (log scale)</text>
</svg>